<svg width="900" height="900" viewBox="0 0 900 900" fill="none" xmlns="http://www.w3.org/2000/svg">
<path d="M437.248 0.510672C451.809 -0.553534 467.045 0.21404 481.587 1.27575C546.1 5.98593 608.268 24.7541 665.214 55.321C698.062 72.9537 728.328 95.5475 755.545 120.951C806.223 168.251 845.433 225.163 869.8 290.191C873.793 300.844 877.851 311.642 880.882 322.622L884.819 335.973L888.615 351.209L891.726 365.607L896.362 393.683C898.326 409.702 899.209 425.509 899.766 441.616C903.736 556.533 856.951 673.445 778.884 757.164C717.041 823.485 634.382 870.594 545.852 890.098C518.723 896.075 491.207 899.021 463.476 899.983C440.727 900.115 418.223 899.524 395.599 896.908C328.241 889.115 263.261 865.497 206.389 828.671C186.499 815.792 167.49 801.985 150.075 785.868C129.486 766.814 109.333 745.636 92.2571 723.359C36.3583 650.431 3.80669 560.099 0.317083 468.207C-4.1739 349.947 39.2083 231.812 119.81 145.022C182.526 77.4911 267.98 28.6075 358.182 9.72934C384.197 4.28483 410.71 1.5129 437.248 0.510672ZM283.964 349.296C283.234 345.485 283.448 341.338 283.442 337.469C283.435 332.584 283.319 327.706 283.98 322.855C283.89 312.759 285.855 302.275 288.053 292.443C297.382 250.711 319.11 211.833 349.34 181.615C394.862 136.111 461.163 110.219 525.254 110.368C579.016 110.493 631.536 126.84 675.323 158.235C689.02 168.056 701.399 179.2 713.209 191.191C742.925 221.362 765.972 256.656 783.062 295.32C787.007 304.243 791.363 314.027 793.726 323.492L795.288 328.387L803.259 359.872L804.141 364.392C805.253 369.234 805.307 374.382 805.758 379.315L809.531 420.518C818.277 425.724 826.651 431.439 834.817 437.515C849.634 448.539 861.904 458.544 880.603 461.834C882.101 429.565 878.863 397.83 872.386 366.202C856.974 290.956 822.008 218.967 770.082 162.079C757.883 148.714 745.026 135.764 731.285 123.976C673.939 74.7775 603.478 40.7772 529.228 26.8535C512.197 23.6597 494.687 20.9643 477.362 20.1894C464.291 19.6049 450.812 19.0821 437.735 19.5239C378.068 21.54 318.107 35.8478 264.315 61.8571C225.024 80.8552 189.332 105.638 157.162 135.064C90.4065 196.122 45.6346 278.284 27.4828 366.583C23.7535 384.724 20.5945 403.667 19.7964 422.191L18.8641 460.198C30.9519 465.938 41.0621 474.099 51.0883 482.853L89.498 518.307C131.115 555.63 177.921 586.632 233.225 598.728C241.938 600.634 251.853 603.285 260.774 603.27C267.286 603.258 273.777 601.822 280.116 600.464C290.02 598.344 299.632 595.735 309.179 592.326C327.937 585.627 346.391 577.528 363.501 567.269C388.441 552.318 410.856 533 430.557 511.672C447.474 493.359 462.46 473.649 473.133 450.997C490.894 413.303 501.435 368.987 486.765 328.519C477.823 303.854 458.229 282.168 434.379 271.044C409.606 259.49 383.737 258.187 356.917 258.34C334.469 284.201 317.334 312.948 304.818 344.821C298.214 361.637 293.216 378.445 290.703 396.372C288.963 384.236 285.934 372.405 284.72 360.168C284.367 356.596 283.771 352.882 283.964 349.296ZM732.863 640.487C716.956 642.4 702.149 646.134 687.314 652.252C649.145 667.993 616.075 696.614 582.989 720.776C550.649 744.393 517.058 766.33 480.073 782.03C444.537 797.115 406.988 805.576 368.431 807.158C346.632 808.052 324.52 807.01 302.957 803.582C258.275 796.476 214.788 780.022 174.846 759.037C155.095 748.66 136.156 736.956 117.379 724.956C120.078 728.794 123.899 732.199 127.032 735.733C149.515 761.096 176.029 784.888 204.07 803.947C296.239 867.661 412.603 894.751 523.208 874.485C552.811 869.061 581.332 861.431 609.397 850.47C677.374 823.922 739.283 777.313 785.134 720.76C791.858 712.467 798.624 704.067 804.679 695.268L823.441 665.65C816.462 664.625 809.794 663.483 803.139 661.059C793.497 657.547 784.557 652.475 775.188 648.356C762.236 642.664 747.084 638.62 732.863 640.487ZM721.033 409.296C712.085 410.42 703.344 411.47 694.559 413.6C650.464 424.285 608.616 450.638 573.951 479.309L545.885 503.922C528.714 518.808 510.894 533.351 492.276 546.387C396.071 613.739 275.682 640.031 166.638 586.288C146.451 576.34 127.718 563.265 109.958 549.513C101.392 542.88 93.5248 535.455 85.4769 528.222L57.5503 503.291C46.1094 492.927 34.1825 480.565 20.0024 474.107C19.7307 480.422 20.6123 486.712 21.1827 492.985C23.6347 519.954 29.0606 546.192 37.1895 572.004C43.1424 570.154 49.3583 568.652 55.6296 568.702C67.6937 568.798 81.3761 573.193 91.9575 578.759L155.148 618.487C211.284 652.116 273.083 678.222 339.351 680.255C360.205 680.895 381.195 679.304 401.475 674.198C446.626 662.83 488.326 638.553 524.291 609.441C546.762 591.251 567.382 570.873 588.318 550.971C604.825 535.277 621.359 520.005 639.169 505.777C651.374 496.026 663.982 486.75 677.7 479.215C701.282 466.262 727.799 458.397 754.882 461.162C770.853 462.792 786.626 468.649 800.341 476.887C819.535 488.417 835.608 504.151 856.819 512.403C863.046 514.826 869.295 516.088 875.864 517.152L880.231 472.726C873.457 471.443 866.779 469.914 860.388 467.267C848.991 462.548 838.635 455.125 829.043 447.465C824.307 443.683 819.657 439.47 814.674 436.041C808.392 431.717 800.998 428.118 794.05 424.935C772.322 414.98 745.152 406.636 721.033 409.296ZM742.863 471.297C727.724 472.536 713.392 475.408 699.328 481.324C666.961 494.937 638.745 519.928 613.178 543.451L567.856 585.27L542.073 608.945C494.917 649.025 440.144 682.362 377.594 689.686C300.565 698.704 224.79 672.407 158.912 634.163L121.151 610.019C105.171 599.413 89.9033 587.883 71.2951 582.246C65.1103 580.372 58.3772 578.983 51.8931 579.29C47.5517 579.497 43.672 580.576 39.5027 581.649L50.5976 611.855C55.5364 624.527 61.2871 636.552 67.8176 648.46C87.0231 640.726 105.217 639.902 124.459 648.153L157.888 666.249L197.246 688.082C241.596 710.459 289.481 728.154 339.419 731.501C366.781 733.335 394.815 730.606 421.291 723.46C448.82 716.029 475.979 704.258 500.374 689.459C520.832 677.048 540.318 663.083 559.512 648.812C611.133 610.431 668.998 564.002 736.808 565.084C748.308 565.268 759.654 567.441 770.394 571.622C797.479 582.165 822.12 603.692 852.126 605.215L873.601 527.935C864.913 526.578 855.692 524.567 847.658 520.895C830.95 513.256 817.534 501.527 802.476 491.344C789.432 482.525 774.462 475.437 758.907 472.732C753.911 471.862 747.927 470.882 742.863 471.297ZM731.281 576.034C720.184 576.938 709.339 578.291 698.535 581.097C644.376 595.161 600.577 633.154 556.346 665.358C513.395 696.631 468.718 723.958 416.382 736.002C407.851 737.965 399.215 739.848 390.508 740.833C371.419 742.992 351.625 743.615 332.479 741.941C276.998 737.091 224.809 715.921 176.318 689.471C155.521 678.126 135.512 663.467 113.017 655.67C104.274 652.64 93.2079 652.387 84.2784 654.539C80.1248 655.54 76.1191 657.142 72.1623 658.729L90.2164 688.127C92.8795 692.2 95.6252 697.029 99.0057 700.499C102.047 703.621 106.378 705.872 110.078 708.1L133.693 721.747L176.212 746.825C225.075 774.671 281.809 792.136 337.939 795.389C350.902 796.14 363.955 796.537 376.929 795.669C397.653 794.28 418.358 790.244 438.377 784.758C470.821 775.866 502.458 760.933 530.856 742.971C555.148 727.607 578.061 710.112 601.266 693.176C628.405 673.368 655.326 653.289 686.613 640.432C703.384 633.54 721.733 628.885 739.984 629.347C756.999 629.776 771.799 634.052 787.054 641.465C793.682 644.686 800.36 648.336 807.348 650.7C814.529 653.129 821.523 654.237 829.009 655.055L848.093 614.863C837.096 613.456 826.545 611.496 816.264 607.184C805.005 602.463 794.668 595.718 783.991 589.864C768.244 581.23 749.417 575.032 731.281 576.034ZM532.265 174.843C512.473 176.578 492.718 179.594 473.631 185.27C450.504 192.147 428.832 202.644 408.341 215.273C447.855 204.751 491.82 212.72 526.862 233.082C566.024 255.838 593.44 298.32 604.708 341.6L609.211 364.016C610.406 369.801 610.574 376.191 610.858 382.089C611.18 388.743 611.572 395.204 611.303 401.897C610.767 415.256 608.856 428.362 606.833 441.558C623.272 429.342 642.777 419.88 661.666 412.097C676.268 406.552 691.238 401.663 706.761 399.511C738.616 395.095 770.496 402.459 799.47 415.465L803.005 417.125C797.605 386.359 788.831 356.044 775.095 327.907C754.105 284.911 721.57 247.789 682.512 220.325C646.899 195.285 604.815 179.657 561.505 175.56C551.95 174.656 541.829 173.98 532.265 174.843ZM433.62 221.919C420.489 223.612 408.413 225.948 395.841 230.237C389.701 232.333 383.275 234.484 377.834 238.1C373.94 240.688 370.614 244.298 367.458 247.721C403.609 246.217 444.136 254.732 471.51 279.836C484.114 291.398 494.107 305.025 500.844 320.798C503.313 326.58 504.833 332.575 506.528 338.597C508.917 347.09 509.616 356.138 509.996 364.91C511.639 402.84 500.541 440.299 481.873 473.117C454.343 521.515 413.908 558.321 366.523 586.809L346.703 598.445L369.099 593.173C407.463 581.901 443.512 565.44 476.845 543.311C494.584 531.535 511.61 517.991 527.919 504.294C549.122 486.487 569.437 467.707 591.996 451.604C606.325 403.256 602.657 349.657 578.552 304.955C557.884 266.629 525.197 239.052 483.27 226.829C470.655 223.151 457.378 221.782 444.284 221.669C440.84 221.639 437.017 221.383 433.62 221.919ZM514.838 127.835C495.985 129.389 477.29 132.355 459.089 137.619C415.06 150.353 374.56 175.694 344.877 210.749C317.628 242.929 298.718 282.203 293.619 324.303C292.628 332.48 292.552 340.592 292.574 348.816C315.765 278.217 368.494 214.993 434.969 181.456L443.157 177.516C458.023 170.858 474.036 165.068 489.97 161.526C536.773 151.125 586.454 155.944 631.113 172.926C647.628 179.205 662.868 187.634 677.734 197.091C692.097 206.228 705.792 216.122 718.602 227.352L742.097 249.822C739.252 243.183 733.083 237.352 728.545 231.798C698.923 195.537 659.509 162.864 615.766 145.268C593.238 136.206 570.047 130.748 545.899 128.484C535.722 127.53 525.03 127.017 514.838 127.835ZM283.98 322.855C283.319 327.706 283.435 332.584 283.442 337.469C283.448 341.338 283.234 345.485 283.964 349.296L284.248 348.62C285.313 345.874 284.482 341.175 284.456 338.129C284.418 333.706 285.701 326.858 283.98 322.855Z" fill="url(#paint0_linear_26_888)"/>
<defs>
<linearGradient id="paint0_linear_26_888" x1="900" y1="450" x2="0" y2="450" gradientUnits="userSpaceOnUse">
<stop stop-color="#255665"/>
<stop offset="1" stop-color="#255665" stop-opacity="0"/>
</linearGradient>
</defs>
</svg>
