<svg width="42" height="40" viewBox="0 0 42 40" fill="none" xmlns="http://www.w3.org/2000/svg">
<path d="M28.02 1H13.98C9 1 7.9 3.4284 7.26 6.40514L5 17H37L34.74 6.40514C34.1 3.4284 33 1 28.02 1Z" stroke="#B68E6C" stroke-linecap="round" stroke-linejoin="round"/>
<path d="M40.9825 34.64C41.2025 36.98 39.3223 39 36.922 39H33.1615C31.0012 39 30.7012 38.08 30.3212 36.94L29.9211 35.74C29.361 34.1 29.001 33 26.1206 33H15.8794C12.999 33 12.579 34.24 12.0789 35.74L11.6788 36.94C11.2988 38.08 10.9988 39 8.83849 39H5.07803C2.67773 39 0.797495 36.98 1.01752 34.64L2.13766 22.46C2.4177 19.46 2.99777 17 8.23842 17H33.7616C39.0022 17 39.5823 19.46 39.8623 22.46L40.9825 34.64Z" stroke="#B68E6C" stroke-linecap="round" stroke-linejoin="round"/>
<path d="M5 11H3" stroke="#B68E6C" stroke-linecap="round" stroke-linejoin="round"/>
<path d="M39 11H37" stroke="#B68E6C" stroke-linecap="round" stroke-linejoin="round"/>
<path d="M21 1V5" stroke="#B68E6C" stroke-linecap="round" stroke-linejoin="round"/>
<path d="M18 5H24" stroke="#B68E6C" stroke-linecap="round" stroke-linejoin="round"/>
<path d="M9 25H15" stroke="#B68E6C" stroke-linecap="round" stroke-linejoin="round"/>
<path d="M27 25H33" stroke="#B68E6C" stroke-linecap="round" stroke-linejoin="round"/>
</svg>
