<svg width="42" height="42" viewBox="0 0 42 42" fill="none" xmlns="http://www.w3.org/2000/svg">
<path d="M10.2907 33H5.25006C2.42331 33 1 31.56 1 28.7V5.30005C1 2.44005 2.42331 1 5.25006 1H13.7501C16.5768 1 18 2.44005 18 5.30005V9" stroke="#B68E6C" stroke-miterlimit="10" stroke-linecap="round" stroke-linejoin="round"/>
<path d="M32 13.84V36.16C32 39.38 30.3506 41 27.031 41H14.9897C11.6701 41 10 39.38 10 36.16V13.84C10 10.62 11.6701 9 14.9897 9H27.031C30.3506 9 32 10.62 32 13.84Z" stroke="#B68E6C" stroke-miterlimit="10" stroke-linecap="round" stroke-linejoin="round"/>
<path d="M24 9V5.30005C24 2.44005 25.4232 1 28.2499 1H36.7499C39.5767 1 41 2.44005 41 5.30005V28.7C41 31.56 39.5767 33 36.7499 33H31.8476" stroke="#B68E6C" stroke-miterlimit="10" stroke-linecap="round" stroke-linejoin="round"/>
<path d="M17 19H25" stroke="#B68E6C" stroke-miterlimit="10" stroke-linecap="round" stroke-linejoin="round"/>
<path d="M17 25H25" stroke="#B68E6C" stroke-miterlimit="10" stroke-linecap="round" stroke-linejoin="round"/>
<path d="M21 41V35" stroke="#B68E6C" stroke-miterlimit="10" stroke-linecap="round" stroke-linejoin="round"/>
</svg>
