<svg width="60" height="60" viewBox="0 0 60 60" fill="none" xmlns="http://www.w3.org/2000/svg">
<path d="M29.1499 0.0340448C30.1206 -0.0369023 31.1363 0.0142693 32.1058 0.0850499C36.4066 0.399062 40.5512 1.65027 44.3476 3.68807C46.5375 4.86358 48.5552 6.36983 50.3697 8.06341C53.7482 11.2167 56.3622 15.0108 57.9867 19.3461C58.2528 20.0563 58.5234 20.7761 58.7255 21.5081L58.9879 22.3982L59.241 23.4139L59.4484 24.3738L59.7575 26.2455C59.8884 27.3135 59.9473 28.3673 59.9844 29.4411C60.2491 37.1022 57.13 44.8963 51.9256 50.4776C47.8027 54.899 42.2921 58.0396 36.3901 59.3399C34.5816 59.7383 32.7471 59.9347 30.8984 59.9989C29.3818 60.0076 27.8816 59.9683 26.3733 59.7939C21.8828 59.2743 17.5507 57.6998 13.7592 55.2447C12.4333 54.3861 11.166 53.4656 10.005 52.3912C8.63239 51.121 7.28884 49.7091 6.15048 48.2239C2.42388 43.3621 0.253779 37.3399 0.0211388 31.2138C-0.27826 23.3298 2.61388 15.4541 7.98735 9.66812C12.1684 5.16607 17.8653 1.90717 23.8788 0.648623C25.6131 0.285656 27.3807 0.10086 29.1499 0.0340448ZM18.9309 23.2864C18.8822 23.0323 18.8965 22.7559 18.8961 22.4979C18.8957 22.1722 18.8879 21.8471 18.932 21.5237C18.926 20.8506 19.057 20.1516 19.2035 19.4962C19.8255 16.7141 21.274 14.1222 23.2893 12.1077C26.3242 9.07409 30.7442 7.34791 35.0169 7.35784C38.6011 7.36617 42.1024 8.45603 45.0216 10.549C45.9347 11.2037 46.76 11.9467 47.5473 12.746C49.5283 14.7575 51.0648 17.1104 52.2041 19.688C52.4671 20.2829 52.7575 20.9352 52.915 21.5662L53.0192 21.8925L53.5506 23.9915L53.6094 24.2928C53.6835 24.6156 53.6871 24.9588 53.7172 25.2877L53.9688 28.0345C54.5518 28.3816 55.1101 28.7626 55.6545 29.1677C56.6422 29.9026 57.4603 30.5696 58.7068 30.789C58.8067 28.6377 58.5909 26.522 58.159 24.4135C57.1316 19.3971 54.8005 14.5978 51.3388 10.8053C50.5255 9.91424 49.6684 9.05096 48.7523 8.26507C44.9293 4.98517 40.2319 2.71848 35.2819 1.79023C34.1464 1.57732 32.9791 1.39762 31.8241 1.34596C30.9528 1.30699 30.0541 1.27214 29.1823 1.30159C25.2046 1.436 21.2071 2.38985 17.621 4.12381C15.0016 5.39035 12.6222 7.04254 10.4775 9.00426C6.0271 13.0748 3.04231 18.5522 1.83219 24.4389C1.58357 25.6483 1.37296 26.9111 1.31976 28.1461L1.25761 30.6799C2.06346 31.0626 2.73747 31.6066 3.40589 32.1902L5.96653 34.5538C8.74098 37.042 11.8614 39.1088 15.5483 39.9152C16.1292 40.0423 16.7902 40.219 17.385 40.218C17.819 40.2172 18.2518 40.1214 18.6744 40.0309C19.3346 39.8896 19.9755 39.7157 20.6119 39.4884C21.8625 39.0418 23.0927 38.5019 24.2334 37.8179C25.8961 36.8212 27.3904 35.5334 28.7038 34.1115C29.8316 32.8906 30.8307 31.5766 31.5422 30.0665C32.7262 27.5535 33.429 24.5991 32.451 21.9013C31.8549 20.257 30.5486 18.8112 28.9586 18.0696C27.3071 17.2993 25.5825 17.2125 23.7945 17.2227C22.298 18.9467 21.1556 20.8632 20.3212 22.988C19.881 24.1091 19.5477 25.2297 19.3802 26.4248C19.2642 25.6157 19.0623 24.827 18.9814 24.0112C18.9578 23.773 18.9181 23.5255 18.9309 23.2864ZM48.8575 42.6992C47.7971 42.8266 46.81 43.0756 45.8209 43.4835C43.2763 44.5328 41.0717 46.4409 38.866 48.0518C36.7099 49.6262 34.4705 51.0887 32.0049 52.1354C29.6358 53.141 27.1325 53.7051 24.5621 53.8105C23.1088 53.8701 21.6347 53.8007 20.1971 53.5721C17.2183 53.0984 14.3192 52.0015 11.6564 50.6025C10.3397 49.9107 9.07705 49.1304 7.82523 48.3304C8.00521 48.5863 8.25996 48.8132 8.46881 49.0489C9.96769 50.7397 11.7353 52.3259 13.6047 53.5965C19.7493 57.8441 27.5069 59.65 34.8805 58.299C36.854 57.9374 38.7555 57.4287 40.6264 56.698C45.1582 54.9281 49.2855 51.8209 52.3423 48.0507C52.7905 47.4978 53.2416 46.9378 53.6452 46.3512L54.8961 44.3767C54.4308 44.3083 53.9863 44.2322 53.5426 44.0706C52.8998 43.8365 52.3038 43.4983 51.6792 43.2238C50.8157 42.8443 49.8056 42.5746 48.8575 42.6992ZM48.0689 27.2864C47.4724 27.3613 46.8896 27.4314 46.3039 27.5733C43.3643 28.2857 40.5744 30.0425 38.2634 31.9539L36.3924 33.5948C35.2476 34.5872 34.0596 35.5567 32.8184 36.4258C26.4048 40.9159 18.3788 42.6687 11.1092 39.0859C9.76339 38.4227 8.51453 37.551 7.33052 36.6342C6.75948 36.192 6.23499 35.697 5.69846 35.2148L3.83669 33.5527C3.07396 32.8618 2.27883 32.0377 1.33349 31.6071C1.31538 32.0281 1.37415 32.4475 1.41218 32.8657C1.57565 34.6636 1.93737 36.4128 2.4793 38.1336C2.87616 38.0103 3.29056 37.9101 3.70864 37.9135C4.51292 37.9199 5.42508 38.2129 6.1305 38.5839L10.3432 41.2324C14.0856 43.4744 18.2055 45.2148 22.6234 45.3503C24.0137 45.393 25.413 45.287 26.765 44.9465C29.7751 44.1886 32.555 42.5702 34.9527 40.6294C36.4508 39.4167 37.8255 38.0582 39.2212 36.7314C40.3217 35.6851 41.4239 34.667 42.6113 33.7185C43.4249 33.0684 44.2655 32.45 45.18 31.9477C46.7521 31.0842 48.5199 30.5598 50.3255 30.7441C51.3902 30.8528 52.4418 31.2433 53.356 31.7925C54.6356 32.5611 55.7072 33.6101 57.1213 34.1602C57.5364 34.3217 57.953 34.4059 58.3909 34.4768L58.6821 31.5151C58.2304 31.4295 57.7853 31.3276 57.3592 31.1512C56.5994 30.8366 55.909 30.3417 55.2695 29.831C54.9538 29.5789 54.6438 29.298 54.3116 29.0694C53.8928 28.7811 53.3999 28.5412 52.9367 28.329C51.4881 27.6653 49.6768 27.1091 48.0689 27.2864ZM49.5242 31.4198C48.5149 31.5024 47.5595 31.6939 46.6219 32.0882C44.4641 32.9958 42.583 34.6619 40.8785 36.2301L37.8571 39.018L36.1382 40.5963C32.9944 43.2683 29.3429 45.4908 25.1729 45.9791C20.0377 46.5803 14.986 44.8271 10.5941 42.2775L8.07672 40.6679C7.01142 39.9609 5.99355 39.1922 4.75301 38.8164C4.34069 38.6915 3.89181 38.5988 3.45954 38.6193C3.17011 38.6331 2.91146 38.7051 2.63351 38.7766L3.37317 40.7904C3.70243 41.6351 4.08581 42.4368 4.52117 43.2307C5.80154 42.7151 7.01449 42.6602 8.29729 43.2102L10.5259 44.4166L13.1497 45.8722C16.1064 47.3639 19.2987 48.5436 22.6279 48.7667C24.4521 48.889 26.321 48.7071 28.0861 48.2307C29.9213 47.7353 31.7319 46.9505 33.3582 45.964C34.7222 45.1365 36.0212 44.2056 37.3008 43.2541C40.7422 40.6954 44.5999 37.6001 49.1205 37.6723C49.8872 37.6845 50.6436 37.8294 51.3596 38.1081C53.1652 38.811 54.808 40.2462 56.8084 40.3477L58.24 35.1957C57.6609 35.1052 57.0461 34.9712 56.5105 34.7263C55.3966 34.2171 54.5023 33.4351 53.4984 32.7563C52.6288 32.1683 51.6308 31.6958 50.5938 31.5155C50.2608 31.4575 49.8618 31.3922 49.5242 31.4198ZM48.7521 38.4022C48.0123 38.4625 47.2892 38.5527 46.569 38.7398C42.9584 39.6774 40.0384 42.2103 37.0897 44.3572C34.2263 46.442 31.2479 48.2639 27.7588 49.0668C27.1901 49.1977 26.6143 49.3232 26.0339 49.3889C24.7612 49.5328 23.4416 49.5743 22.1652 49.4627C18.4665 49.1394 14.9872 47.7281 11.7546 45.9647C10.368 45.2084 9.03415 44.2311 7.53443 43.7113C6.95162 43.5093 6.21386 43.4925 5.61856 43.6359C5.34165 43.7027 5.0746 43.8095 4.81082 43.9153L6.01442 45.8751C6.19196 46.1467 6.37501 46.4686 6.60038 46.6999C6.80314 46.9081 7.0919 47.0582 7.33852 47.2067L8.91289 48.1165L11.7475 49.7883C15.005 51.6447 18.7873 52.8091 22.5293 53.0259C23.3935 53.076 24.2637 53.1025 25.1286 53.0446C26.5102 52.952 27.8905 52.6829 29.2251 52.3172C31.3881 51.7244 33.4972 50.7288 35.3904 49.5314C37.0099 48.5072 38.5374 47.3408 40.0844 46.2117C41.8937 44.8912 43.6884 43.5526 45.7742 42.6955C46.8923 42.236 48.1155 41.9257 49.3323 41.9564C50.4666 41.9851 51.4533 42.2702 52.4703 42.7643C52.9122 42.979 53.3573 43.2224 53.8232 43.38C54.3019 43.5419 54.7682 43.6158 55.2672 43.6703L56.5395 40.9909C55.8064 40.8971 55.103 40.7664 54.4176 40.479C53.667 40.1642 52.9778 39.7145 52.2661 39.3243C51.2163 38.7487 49.9611 38.3355 48.7521 38.4022ZM35.4843 11.6562C34.1649 11.7719 32.8479 11.973 31.5754 12.3514C30.0336 12.8098 28.5888 13.5096 27.2227 14.3515C29.857 13.6501 32.788 14.1813 35.1242 15.5388C37.735 17.0558 39.5627 19.888 40.3139 22.7733L40.6141 24.2677C40.6937 24.6534 40.7049 25.0794 40.7239 25.4726C40.7453 25.9162 40.7715 26.3469 40.7535 26.7931C40.7178 27.6838 40.5904 28.5575 40.4555 29.4372C41.5515 28.6228 42.8518 27.992 44.1111 27.4731C45.0846 27.1035 46.0825 26.7776 47.1174 26.6341C49.241 26.3396 51.3664 26.8306 53.298 27.6977L53.5336 27.8083C53.1737 25.7573 52.5888 23.7363 51.673 21.8605C50.2737 18.9941 48.1047 16.5193 45.5008 14.6884C43.1266 13.019 40.321 11.9771 37.4337 11.704C36.7967 11.6438 36.1219 11.5987 35.4843 11.6562ZM28.908 14.7946C28.0326 14.9074 27.2275 15.0632 26.3894 15.3491C25.9801 15.4889 25.5516 15.6323 25.1889 15.8734C24.9293 16.0459 24.7076 16.2865 24.4972 16.5147C26.9073 16.4145 29.6091 16.9821 31.434 18.6558C32.2743 19.4265 32.9405 20.335 33.3896 21.3865C33.5542 21.772 33.6556 22.1717 33.7685 22.5731C33.9278 23.1394 33.9744 23.7426 33.9998 24.3274C34.1092 26.856 33.3694 29.3533 32.1249 31.5412C30.2895 34.7676 27.5939 37.2214 24.4349 39.1206L23.1135 39.8963L24.6066 39.5449C27.1642 38.7934 29.5675 37.696 31.7897 36.2207C32.9723 35.4357 34.1073 34.5327 35.1946 33.6196C36.6081 32.4324 37.9624 31.1804 39.4664 30.1069C40.4216 26.8838 40.1771 23.3105 38.5701 20.3303C37.1923 17.7752 35.0131 15.9368 32.218 15.1219C31.377 14.8768 30.4918 14.7855 29.6189 14.7779C29.3893 14.7759 29.1345 14.7589 28.908 14.7946ZM34.3225 8.52234C33.0656 8.62592 31.8193 8.82368 30.6059 9.1746C27.6707 10.0235 24.9707 11.7129 22.9918 14.0499C21.1752 16.1953 19.9145 18.8135 19.5746 21.6202C19.5085 22.1653 19.5035 22.7061 19.5049 23.2544C21.051 18.5478 24.5663 14.3329 28.998 12.097L29.5438 11.8344C30.5349 11.3905 31.6024 11.0046 32.6647 10.7684C35.7848 10.075 39.097 10.3963 42.0742 11.5284C43.1752 11.947 44.1912 12.509 45.1823 13.1394C46.1398 13.7485 47.0528 14.4082 47.9068 15.1568L49.4731 16.6548C49.2835 16.2122 48.8722 15.8234 48.5697 15.4532C46.5949 13.0358 43.9673 10.8576 41.0511 9.68452C39.5492 9.08037 38.0031 8.7165 36.3933 8.56558C35.7148 8.50203 35.002 8.46782 34.3225 8.52234ZM18.932 21.5237C18.8879 21.8471 18.8957 22.1722 18.8961 22.4979C18.8965 22.7559 18.8822 23.0323 18.9309 23.2864L18.9499 23.2413C19.0209 23.0583 18.9655 22.745 18.9637 22.5419C18.9612 22.2471 19.0467 21.7906 18.932 21.5237Z" fill="white"/>
</svg>
