<svg width="40" height="35" viewBox="0 0 40 35" fill="none" xmlns="http://www.w3.org/2000/svg">
<path d="M36 4.77273H30.026L27.064 0.353977C26.9911 0.24529 26.8923 0.156139 26.7765 0.0944015C26.6607 0.0326641 26.5314 0.00024191 26.4 0H13.6C13.4686 0.00024191 13.3393 0.0326641 13.2235 0.0944015C13.1077 0.156139 13.0089 0.24529 12.936 0.353977L9.97 4.77273H4C2.93913 4.77273 1.92172 5.19176 1.17157 5.93764C0.421427 6.68353 0 7.69516 0 8.75V31.0227C0 32.0776 0.421427 33.0892 1.17157 33.8351C1.92172 34.581 2.93913 35 4 35H36C37.0609 35 38.0783 34.581 38.8284 33.8351C39.5786 33.0892 40 32.0776 40 31.0227V8.75C40 7.69516 39.5786 6.68353 38.8284 5.93764C38.0783 5.19176 37.0609 4.77273 36 4.77273ZM38.4 31.0227C38.4 31.6556 38.1471 32.2626 37.6971 32.7101C37.247 33.1577 36.6365 33.4091 36 33.4091H4C3.36348 33.4091 2.75303 33.1577 2.30294 32.7101C1.85286 32.2626 1.6 31.6556 1.6 31.0227V8.75C1.6 8.1171 1.85286 7.51012 2.30294 7.06259C2.75303 6.61506 3.36348 6.36364 4 6.36364H10.4C10.5317 6.36372 10.6615 6.33145 10.7777 6.2697C10.8938 6.20795 10.9929 6.11863 11.066 6.00966L14.026 1.59091H25.97L28.934 6.00966C29.0071 6.11863 29.1062 6.20795 29.2224 6.2697C29.3385 6.33145 29.4683 6.36372 29.6 6.36364H36C36.6365 6.36364 37.247 6.61506 37.6971 7.06259C38.1471 7.51012 38.4 8.1171 38.4 8.75V31.0227ZM20 11.1364C18.4177 11.1364 16.871 11.6029 15.5554 12.4769C14.2398 13.351 13.2145 14.5933 12.609 16.0468C12.0035 17.5003 11.845 19.0997 12.1537 20.6428C12.4624 22.1858 13.2243 23.6032 14.3431 24.7156C15.462 25.8281 16.8874 26.5857 18.4393 26.8926C19.9911 27.1995 21.5997 27.042 23.0615 26.44C24.5233 25.8379 25.7727 24.8183 26.6518 23.5102C27.5308 22.2021 28 20.6642 28 19.0909C28 16.9812 27.1571 14.958 25.6569 13.4662C24.1566 11.9744 22.1217 11.1364 20 11.1364ZM20 25.4545C18.7342 25.4545 17.4968 25.0813 16.4444 24.3821C15.3919 23.6828 14.5716 22.689 14.0872 21.5262C13.6028 20.3634 13.476 19.0839 13.723 17.8494C13.9699 16.615 14.5795 15.4811 15.4745 14.5911C16.3696 13.7012 17.5099 13.0951 18.7514 12.8495C19.9929 12.604 21.2797 12.73 22.4492 13.2117C23.6186 13.6933 24.6182 14.509 25.3214 15.5555C26.0246 16.602 26.4 17.8323 26.4 19.0909C26.4 20.7787 25.7257 22.3973 24.5255 23.5907C23.3253 24.7841 21.6974 25.4545 20 25.4545Z" fill="#B68E6C"/>
</svg>
