<svg width="41" height="42" viewBox="0 0 41 42" fill="none" xmlns="http://www.w3.org/2000/svg">
<path d="M2 20V28.7468C2 37.4935 5.70618 41 14.951 41H26.049C35.2938 41 39 37.4935 39 28.7468V20" stroke="#B68E6C" stroke-linecap="round" stroke-linejoin="round"/>
<path d="M20.5 21C24.4438 21 27.3532 18.02 26.9653 14.36L25.5429 1H15.4786L14.0347 14.36C13.6468 18.02 16.5562 21 20.5 21Z" stroke="#B68E6C" stroke-linecap="round" stroke-linejoin="round"/>
<path d="M33.2081 21C37.3429 21 40.3723 17.72 39.9629 13.7L39.3898 8.2C38.6529 3 36.606 1 31.2431 1H25L26.4328 15.02C26.7808 18.32 29.8307 21 33.2081 21Z" stroke="#B68E6C" stroke-linecap="round" stroke-linejoin="round"/>
<path d="M7.80116 21C11.1832 21 14.2372 18.32 14.5652 15.02L15.0161 10.6L16 1H9.74838C4.37814 1 2.32843 3 1.59053 8.2L1.03711 13.7C0.627168 17.72 3.66074 21 7.80116 21Z" stroke="#B68E6C" stroke-linecap="round" stroke-linejoin="round"/>
<path d="M21 31C17.66 31 16 32.66 16 36V41H26V36C26 32.66 24.34 31 21 31Z" stroke="#B68E6C" stroke-linecap="round" stroke-linejoin="round"/>
</svg>
