<svg width="26" height="23" viewBox="0 0 26 23" fill="none" xmlns="http://www.w3.org/2000/svg">
<path d="M0.938376 11.0598L6.686 13.2219L8.92658 20.4942C9.024 20.9856 9.6085 21.0839 9.99817 20.7891L13.2129 18.1356C13.5052 17.8408 13.9923 17.8408 14.3819 18.1356L20.1295 22.3615C20.5192 22.6563 21.1037 22.4598 21.2011 21.9684L25.4875 1.33057C25.5849 0.839197 25.0978 0.347825 24.6107 0.544376L0.938376 9.78225C0.353875 9.9788 0.353875 10.8633 0.938376 11.0598ZM8.63434 12.1409L19.9347 5.16331C20.1295 5.06503 20.3244 5.35986 20.1295 5.45814L10.8749 14.2046C10.5827 14.4995 10.2904 14.8926 10.2904 15.3839L9.99817 17.7425C9.99817 18.0374 9.51108 18.1356 9.41366 17.7425L8.24465 13.4184C7.9524 12.9271 8.14725 12.3374 8.63434 12.1409Z" fill="white"/>
</svg>
