<svg width="40" height="34" viewBox="0 0 40 34" fill="none" xmlns="http://www.w3.org/2000/svg">
<path d="M26.844 13.088L17.244 6.61179C17.1235 6.53043 16.9834 6.48371 16.8387 6.47661C16.694 6.46952 16.5501 6.50232 16.4224 6.57151C16.2947 6.6407 16.1879 6.74368 16.1135 6.86947C16.0392 6.99525 15.9999 7.13912 16 7.28571V20.2381C15.9998 20.3847 16.039 20.5286 16.1133 20.6544C16.1876 20.7802 16.2943 20.8832 16.422 20.9525C16.5498 21.0217 16.6938 21.0546 16.8385 21.0474C16.9833 21.0403 17.1235 20.9935 17.244 20.912L26.844 14.4358C26.9537 14.3619 27.0437 14.2617 27.106 14.1442C27.1682 14.0266 27.2008 13.8953 27.2008 13.7619C27.2008 13.6285 27.1682 13.4972 27.106 13.3796C27.0437 13.2621 26.9537 13.1619 26.844 13.088ZM17.6 18.7263V8.7975L24.958 13.7619L17.6 18.7263ZM37.6 0H2.4C1.76348 0 1.15303 0.255866 0.702944 0.711312C0.252856 1.16676 0 1.78447 0 2.42857V25.0952C0 25.7393 0.252856 26.3571 0.702944 26.8125C1.15303 27.2679 1.76348 27.5238 2.4 27.5238H37.6C38.2365 27.5238 38.847 27.2679 39.2971 26.8125C39.7471 26.3571 40 25.7393 40 25.0952V2.42857C40 1.78447 39.7471 1.16676 39.2971 0.711312C38.847 0.255866 38.2365 0 37.6 0ZM38.4 25.0952C38.4 25.3099 38.3157 25.5158 38.1657 25.6677C38.0157 25.8195 37.8122 25.9048 37.6 25.9048H2.4C2.18783 25.9048 1.98434 25.8195 1.83431 25.6677C1.68429 25.5158 1.6 25.3099 1.6 25.0952V2.42857C1.6 2.21387 1.68429 2.00797 1.83431 1.85615C1.98434 1.70434 2.18783 1.61905 2.4 1.61905H37.6C37.8122 1.61905 38.0157 1.70434 38.1657 1.85615C38.3157 2.00797 38.4 2.21387 38.4 2.42857V25.0952ZM40 33.1905C40 33.4052 39.9157 33.6111 39.7657 33.7629C39.6157 33.9147 39.4122 34 39.2 34H0.8C0.587827 34 0.384344 33.9147 0.234315 33.7629C0.0842856 33.6111 0 33.4052 0 33.1905C0 32.9758 0.0842856 32.7699 0.234315 32.6181C0.384344 32.4662 0.587827 32.381 0.8 32.381H39.2C39.4122 32.381 39.6157 32.4662 39.7657 32.6181C39.9157 32.7699 40 32.9758 40 33.1905Z" fill="#B68E6C"/>
</svg>
