<svg width="31" height="18" viewBox="0 0 31 18" fill="none" xmlns="http://www.w3.org/2000/svg">
<path d="M30.2213 15.7534C30.2213 15.637 30.102 15.637 30.102 15.5205C29.6245 14.589 28.5503 13.4247 27.1179 12.1438C26.4017 11.5617 26.0436 11.0959 25.8049 10.863C25.4468 10.3973 25.4468 10.048 25.5662 9.5822C25.6856 9.23289 26.163 8.65068 26.9985 7.60273C27.476 7.02054 27.7147 6.67124 28.0728 6.32192C29.8632 3.99315 30.6988 2.47944 30.46 1.78081L30.3407 1.66438C30.2214 1.54795 30.102 1.43151 29.8632 1.43151C29.6245 1.31507 29.2664 1.31507 28.9083 1.43151H24.3726C24.2532 1.43151 24.2532 1.43151 24.0145 1.43151C23.8951 1.43151 23.7758 1.43151 23.7758 1.43151H23.6564H23.537L23.4177 1.54794C23.2983 1.66438 23.2983 1.66437 23.2983 1.78081C22.8208 3.06163 22.224 4.10958 21.6272 5.27396C21.2691 5.85616 20.911 6.43836 20.553 6.90411C20.1949 7.36987 19.9561 7.71918 19.7174 7.95205C19.4787 8.18493 19.2399 8.30137 19.1206 8.53424C19.0012 8.65068 18.7625 8.76713 18.7625 8.65069C18.6431 8.65069 18.5238 8.65068 18.5238 8.53424C18.4044 8.41781 18.2851 8.30136 18.1657 8.18493C18.0463 8.06849 18.0463 7.83561 17.927 7.60273C17.927 7.36986 17.927 7.13698 17.927 7.02054C17.927 6.9041 17.927 6.5548 17.927 6.32192C17.927 5.97261 17.927 5.73972 17.927 5.62328C17.927 5.27397 17.927 4.80823 17.927 4.34247C17.927 3.87672 17.927 3.52739 17.927 3.29452C17.927 3.06164 17.927 2.71233 17.927 2.47945C17.927 2.13013 17.927 1.89725 17.927 1.78081C17.927 1.66437 17.8076 1.4315 17.8076 1.31507C17.6883 1.19863 17.5689 1.08219 17.4495 0.965747C17.3301 0.849308 17.0914 0.849312 16.9721 0.732873C16.3753 0.616435 15.6591 0.5 14.8236 0.5C12.9137 0.5 11.6007 0.616442 11.1233 0.849319C10.8846 0.965757 10.6458 1.08219 10.5265 1.31507C10.2878 1.54794 10.2878 1.66438 10.4071 1.66438C11.0039 1.78082 11.4814 2.01369 11.7201 2.363L11.8395 2.5959C11.9588 2.71233 11.9588 2.9452 12.0782 3.29452C12.1975 3.64383 12.1976 3.99315 12.1976 4.4589C12.1976 5.15753 12.1976 5.85617 12.1976 6.32192C12.1976 6.90411 12.0782 7.25342 12.0782 7.60273C12.0782 7.95205 11.9588 8.18493 11.8395 8.30137C11.7201 8.53425 11.7201 8.65069 11.6007 8.65069C11.6007 8.65069 11.6007 8.76712 11.4814 8.76712C11.362 8.76712 11.2427 8.88356 11.0039 8.88356C10.8846 8.88356 10.6458 8.76713 10.5265 8.65069C10.2878 8.53425 10.049 8.30137 9.92967 8.0685C9.69095 7.83562 9.45221 7.48629 9.21349 7.02054C8.97476 6.55479 8.61666 6.08904 8.37793 5.39041L8.13923 4.92466C8.01987 4.69179 7.78114 4.22603 7.54242 3.64383C7.30369 3.06164 7.06496 2.5959 6.82623 2.0137C6.70687 1.78083 6.58752 1.66438 6.46816 1.54794H6.34879C6.34879 1.54794 6.22941 1.43151 6.11005 1.43151C5.99068 1.43151 5.87134 1.31507 5.75197 1.31507H1.45491C0.977455 1.31507 0.738733 1.4315 0.61937 1.54794L0.5 1.66438C0.5 1.66438 0.5 1.78082 0.5 1.89726C0.5 2.0137 0.500007 2.13013 0.61937 2.363C1.21618 3.76027 1.93236 5.15753 2.64853 6.55479C3.36471 7.83562 4.08089 9 4.55835 9.81507C5.15516 10.6301 5.6326 11.4452 6.22942 12.1438C6.82623 12.8425 7.18431 13.3082 7.30368 13.5411C7.5424 13.774 7.66176 13.8904 7.78112 14.0068L8.13923 14.3562C8.37795 14.589 8.73604 14.9384 9.21349 15.2877C9.69094 15.637 10.2877 15.9863 10.8846 16.3356C11.4814 16.6849 12.1976 16.9178 12.9137 17.1507C13.7493 17.3836 14.4654 17.5 15.1816 17.3836H16.9721C17.3302 17.3836 17.5689 17.2671 17.8076 17.0343L17.927 16.9178C17.927 16.8014 18.0463 16.8014 18.0463 16.6849C18.0463 16.5685 18.0463 16.4521 18.0463 16.2192C18.0463 15.7534 18.0463 15.4041 18.1657 15.0548C18.2851 14.7055 18.2851 14.4726 18.4044 14.2397C18.5238 14.0069 18.6431 13.8904 18.7625 13.774C18.8819 13.6575 19.0012 13.5411 19.0012 13.5411H19.1206C19.3593 13.4247 19.7174 13.5411 19.9561 13.774C20.3142 14.0069 20.6723 14.3562 20.911 14.7055C21.1497 15.0548 21.5079 15.4041 21.9853 15.8699C22.4628 16.3356 22.8209 16.6849 23.0596 16.8014L23.4177 17.0343C23.6564 17.1507 23.8951 17.2671 24.2532 17.3836C24.6113 17.5 24.85 17.5 25.0887 17.5L29.1471 17.3836C29.5052 17.3836 29.8632 17.2671 30.102 17.1507C30.3407 17.0343 30.46 16.9178 30.46 16.6849C30.46 16.5685 30.46 16.3356 30.46 16.2192C30.2213 15.9863 30.2213 15.8699 30.2213 15.7534Z" fill="white"/>
</svg>
