<svg width="26" height="26" viewBox="0 0 26 26" fill="none" xmlns="http://www.w3.org/2000/svg">
<path d="M21.8415 4.14583C19.4895 1.80208 16.3537 0.5 13.0436 0.5C6.16202 0.5 0.587107 6.05555 0.587107 12.9132C0.587107 15.0833 1.19686 17.2535 2.24216 19.0764L0.5 25.5L7.12021 23.7639C8.94948 24.7188 10.953 25.2396 13.0436 25.2396C19.9251 25.2396 25.5 19.684 25.5 12.8264C25.4129 9.61458 24.1934 6.48958 21.8415 4.14583ZM19.054 17.3403C18.7927 18.0347 17.5732 18.7292 16.9634 18.816C16.4408 18.9028 15.7439 18.9028 15.047 18.7292C14.6115 18.5556 14.0017 18.3819 13.3049 18.0347C10.169 16.7326 8.16551 13.6076 7.99129 13.3472C7.81707 13.1736 6.68467 11.6979 6.68467 10.1354C6.68467 8.57292 7.46864 7.87847 7.72996 7.53125C7.99129 7.18403 8.33972 7.18403 8.60104 7.18403C8.77526 7.18403 9.03658 7.18403 9.2108 7.18403C9.38501 7.18403 9.64634 7.09722 9.90766 7.70486C10.169 8.3125 10.7787 9.875 10.8659 9.96181C10.953 10.1354 10.953 10.309 10.8659 10.4826C10.7787 10.6562 10.6916 10.8299 10.5174 11.0035C10.3432 11.1771 10.169 11.4375 10.0819 11.5243C9.90766 11.6979 9.73345 11.8715 9.90766 12.1319C10.0819 12.4792 10.6916 13.434 11.6498 14.3021C12.8693 15.3437 13.8275 15.691 14.176 15.8646C14.5244 16.0382 14.6986 15.9514 14.8728 15.7778C15.047 15.6042 15.6568 14.9097 15.831 14.5625C16.0052 14.2153 16.2665 14.3021 16.5279 14.3889C16.7892 14.4757 18.3571 15.2569 18.6185 15.4306C18.9669 15.6042 19.1411 15.691 19.2282 15.7778C19.3153 16.0382 19.3153 16.6458 19.054 17.3403Z" fill="white"/>
</svg>
