<svg width="31" height="22" viewBox="0 0 31 22" fill="none" xmlns="http://www.w3.org/2000/svg">
<path d="M30.5 8.56059C30.5 7.92423 30.3905 7.18182 30.3905 6.33333C30.2811 5.48485 30.1715 4.63636 30.0621 3.89394C29.8431 3.04545 29.5146 2.40909 28.8577 1.87879C28.3102 1.34849 27.5438 1.0303 26.7774 0.924236C24.2591 0.606054 20.5365 0.5 15.5 0.5C10.4635 0.5 6.63138 0.606054 4.22262 0.924236C3.4562 1.0303 2.68978 1.34849 2.14234 1.87879C1.59489 2.40909 1.15693 3.04545 0.93795 3.89394C0.718971 4.63636 0.609496 5.37879 0.609496 6.33333C0.500007 7.18182 0.5 7.92423 0.5 8.56059C0.5 9.19696 0.5 9.93939 0.5 11C0.5 12.0606 0.5 12.9091 0.5 13.4394C0.5 14.0758 0.609496 14.8182 0.609496 15.6667C0.718985 16.5152 0.828461 17.3636 0.93795 18.106C1.15693 18.9545 1.4854 19.5909 2.14234 20.1212C2.68978 20.6515 3.4562 20.9697 4.22262 21.0757C6.74087 21.3939 10.4635 21.5 15.5 21.5C20.5365 21.5 24.3686 21.3939 26.7774 21.0757C27.5438 20.9697 28.3102 20.6515 28.8577 20.1212C29.4051 19.5909 29.8431 18.9545 30.0621 18.106C30.281 17.3636 30.3905 16.6212 30.3905 15.6667C30.5 14.8182 30.5 14.0758 30.5 13.4394C30.5 12.803 30.5 12.0606 30.5 11C30.5 9.93939 30.5 9.0909 30.5 8.56059ZM21.3029 11.8485L12.6533 17.0454C12.5438 17.1515 12.3248 17.2576 12.1058 17.2576C11.8869 17.2576 11.7774 17.2576 11.5584 17.1515C11.2299 16.9394 11.011 16.6212 11.011 16.197V5.69696C11.011 5.27272 11.2299 4.95454 11.5584 4.74242C11.8869 4.5303 12.3248 4.5303 12.6533 4.74242L21.3029 9.93939C21.6314 10.1515 21.8504 10.4697 21.8504 10.7879C21.8504 11.1061 21.6314 11.6364 21.3029 11.8485Z" fill="white"/>
</svg>
